<svg width="200" height="53" viewBox="0 0 200 53" fill="none" xmlns="http://www.w3.org/2000/svg">
<path d="M0.243164 51.9999V3.18014H10.5649V43.4898H31.4945V51.9999H0.243164Z" fill="white"/>
<path d="M38.1393 51.9999V15.3851H48.2942V51.9999H38.1393ZM43.2406 10.6652C41.7468 10.6652 40.4595 10.1646 39.3789 9.16342C38.2982 8.14634 37.7579 6.93062 37.7579 5.51624C37.7579 4.10186 38.2982 2.89408 39.3789 1.89289C40.4595 0.891706 41.7468 0.391113 43.2406 0.391113C44.7503 0.391113 46.0455 0.891706 47.1261 1.89289C48.2068 2.89408 48.7471 4.10186 48.7471 5.51624C48.7471 6.93062 48.2068 8.14634 47.1261 9.16342C46.0455 10.1646 44.7503 10.6652 43.2406 10.6652Z" fill="white"/>
<path d="M66.5837 30.832V51.9999H56.4288V15.3851H66.107V21.8451H66.5361C67.3624 19.7156 68.7212 18.0311 70.6123 16.7915C72.5194 15.5361 74.8316 14.9083 77.5491 14.9083C81.3632 14.9083 84.4224 16.1399 86.7267 18.6032C89.031 21.0505 90.1832 24.4117 90.1832 28.6866V51.9999H80.0283V30.4982C80.0442 28.2575 79.472 26.5094 78.3119 25.2539C77.1518 23.9826 75.5547 23.3469 73.5205 23.3469C71.4705 23.3469 69.8018 24.0064 68.5146 25.3254C67.2433 26.6286 66.5996 28.4641 66.5837 30.832Z" fill="white"/>
<path d="M114.873 52.7151C111.123 52.7151 107.889 51.9523 105.171 50.4266C102.454 48.8851 100.364 46.7079 98.9018 43.8951C97.4398 41.0663 96.7087 37.7211 96.7087 33.8594C96.7087 30.093 97.4398 26.7875 98.9018 23.9429C100.364 21.0982 102.422 18.8813 105.076 17.2921C107.746 15.7029 110.876 14.9083 114.468 14.9083C117.694 14.9083 120.602 15.5917 123.193 16.9584C125.799 18.3251 127.865 20.391 129.39 23.1562C130.916 25.9055 131.679 29.354 131.679 33.5018V36.2908H106.744V36.3147C106.744 39.0481 107.491 41.2014 108.985 42.7747C110.479 44.348 112.497 45.1347 115.04 45.1347C116.74 45.1347 118.21 44.7771 119.45 44.062C120.69 43.3468 121.564 42.29 122.072 40.8915L131.464 41.5113C130.749 44.9122 128.937 47.6297 126.029 49.6638C123.121 51.698 119.402 52.7151 114.873 52.7151ZM106.744 29.9977H122.12C122.104 27.8205 121.405 26.0247 120.022 24.6103C118.64 23.1959 116.844 22.4888 114.635 22.4888C112.378 22.4888 110.527 23.2198 109.081 24.6818C107.634 26.1439 106.856 27.9158 106.744 29.9977Z" fill="white"/>
<path d="M148.747 52.6912C145.25 52.6912 142.35 51.7775 140.046 49.9499C137.742 48.1223 136.589 45.3969 136.589 41.7735C136.589 39.0401 137.233 36.8947 138.52 35.3373C139.807 33.7799 141.492 32.6437 143.574 31.9285C145.672 31.1975 147.928 30.7207 150.344 30.4982C153.522 30.1804 155.795 29.8467 157.161 29.4971C158.528 29.1474 159.211 28.3846 159.211 27.2086V27.0656C159.211 25.5559 158.735 24.3878 157.781 23.5614C156.844 22.7351 155.509 22.3219 153.776 22.3219C151.949 22.3219 150.495 22.7192 149.414 23.5138C148.333 24.3084 147.618 25.3175 147.269 26.5412L137.877 25.7784C138.576 22.4411 140.308 19.7951 143.073 17.8404C145.854 15.8857 149.438 14.9083 153.824 14.9083C156.542 14.9083 159.084 15.3374 161.452 16.1956C163.82 17.0537 165.727 18.3966 167.173 20.2242C168.635 22.0358 169.366 24.3958 169.366 27.304V51.9999H159.736V46.9225H159.45C158.56 48.6229 157.225 50.0135 155.445 51.0941C153.681 52.1589 151.448 52.6912 148.747 52.6912ZM151.655 45.6829C153.88 45.6829 155.707 45.0393 157.138 43.7521C158.568 42.4489 159.283 40.8359 159.283 38.913V35.0274C158.886 35.2976 158.266 35.536 157.424 35.7426C156.597 35.9492 155.707 36.1319 154.754 36.2908C153.816 36.4339 152.974 36.561 152.227 36.6722C150.447 36.9265 149.009 37.4271 147.912 38.174C146.832 38.9209 146.291 40.0095 146.291 41.4398C146.291 42.8383 146.792 43.8951 147.793 44.6102C148.81 45.3254 150.097 45.6829 151.655 45.6829Z" fill="white"/>
<path d="M177.245 51.9999V15.3851H187.09V21.7736H187.471C188.139 19.5011 189.259 17.7848 190.832 16.6247C192.406 15.4487 194.217 14.8607 196.267 14.8607C197.396 14.8607 198.46 14.9798 199.462 15.2182V24.2289C198.985 24.07 198.325 23.9429 197.483 23.8475C196.641 23.7363 195.87 23.6806 195.171 23.6806C192.93 23.6806 191.071 24.3878 189.593 25.8022C188.131 27.2007 187.4 29.0283 187.4 31.2849V51.9999H177.245Z" fill="white"/>
</svg>
