<svg width="200" height="53" viewBox="0 0 200 53" fill="none" xmlns="http://www.w3.org/2000/svg">
<path d="M0 51.6088V2.78902H10.3218V43.0987H31.2513V51.6088H0Z" fill="#1C1D1F"/>
<path d="M37.8961 51.6088V14.994H48.051V51.6088H37.8961ZM42.9974 10.2741C41.5036 10.2741 40.2163 9.77349 39.1357 8.77231C38.055 7.75523 37.5147 6.5395 37.5147 5.12513C37.5147 3.71075 38.055 2.50297 39.1357 1.50178C40.2163 0.500593 41.5036 0 42.9974 0C44.5071 0 45.8023 0.500593 46.883 1.50178C47.9636 2.50297 48.504 3.71075 48.504 5.12513C48.504 6.5395 47.9636 7.75523 46.883 8.77231C45.8023 9.77349 44.5071 10.2741 42.9974 10.2741Z" fill="#1C1D1F"/>
<path d="M66.3406 30.4409V51.6088H56.1857V14.994H65.8638V21.454H66.2929C67.1193 19.3245 68.478 17.64 70.3692 16.4004C72.2762 15.1449 74.5885 14.5172 77.306 14.5172C81.12 14.5172 84.1792 15.7488 86.4835 18.2121C88.7878 20.6594 89.94 24.0206 89.94 28.2955V51.6088H79.7851V30.1071C79.801 27.8664 79.2289 26.1183 78.0688 24.8628C76.9087 23.5915 75.3115 22.9558 73.2774 22.9558C71.2273 22.9558 69.5587 23.6153 68.2714 24.9343C67.0001 26.2375 66.3565 28.073 66.3406 30.4409Z" fill="#1C1D1F"/>
<path d="M114.63 52.324C110.88 52.324 107.646 51.5611 104.928 50.0355C102.21 48.494 100.121 46.3168 98.6587 43.504C97.1966 40.6752 96.4656 37.33 96.4656 33.4683C96.4656 29.7019 97.1966 26.3964 98.6587 23.5517C100.121 20.7071 102.179 18.4902 104.833 16.901C107.502 15.3118 110.633 14.5172 114.225 14.5172C117.451 14.5172 120.359 15.2006 122.949 16.5673C125.556 17.934 127.622 19.9999 129.147 22.7651C130.673 25.5144 131.436 28.9629 131.436 33.1107V35.8997H106.501V35.9236C106.501 38.657 107.248 40.8103 108.742 42.3836C110.236 43.9569 112.254 44.7435 114.797 44.7435C116.497 44.7435 117.967 44.386 119.207 43.6708C120.446 42.9557 121.32 41.8989 121.829 40.5004L131.221 41.1202C130.506 44.5211 128.694 47.2386 125.786 49.2727C122.878 51.3069 119.159 52.324 114.63 52.324ZM106.501 29.6065H121.877C121.861 27.4294 121.162 25.6336 119.779 24.2192C118.396 22.8048 116.601 22.0976 114.392 22.0976C112.135 22.0976 110.284 22.8287 108.837 24.2907C107.391 25.7528 106.613 27.5247 106.501 29.6065Z" fill="#1C1D1F"/>
<path d="M148.503 52.3001C145.007 52.3001 142.107 51.3863 139.803 49.5588C137.498 47.7312 136.346 45.0058 136.346 41.3824C136.346 38.649 136.99 36.5036 138.277 34.9462C139.564 33.3888 141.249 32.2525 143.331 31.5374C145.428 30.8064 147.685 30.3296 150.101 30.1071C153.279 29.7893 155.552 29.4556 156.918 29.1059C158.285 28.7563 158.968 27.9935 158.968 26.8175V26.6745C158.968 25.1648 158.492 23.9967 157.538 23.1703C156.6 22.344 155.265 21.9308 153.533 21.9308C151.706 21.9308 150.252 22.3281 149.171 23.1227C148.09 23.9173 147.375 24.9264 147.026 26.1501L137.633 25.3873C138.333 22.05 140.065 19.404 142.83 17.4493C145.611 15.4946 149.195 14.5172 153.581 14.5172C156.298 14.5172 158.841 14.9463 161.209 15.8045C163.577 16.6626 165.484 18.0055 166.93 19.833C168.392 21.6447 169.123 24.0047 169.123 26.9129V51.6088H159.493V46.5314H159.207C158.317 48.2318 156.982 49.6223 155.202 50.703C153.438 51.7677 151.205 52.3001 148.503 52.3001ZM151.412 45.2918C153.637 45.2918 155.464 44.6482 156.894 43.3609C158.325 42.0578 159.04 40.4448 159.04 38.5219V34.6363C158.642 34.9065 158.023 35.1449 157.18 35.3514C156.354 35.558 155.464 35.7408 154.511 35.8997C153.573 36.0427 152.731 36.1699 151.984 36.2811C150.204 36.5354 148.766 37.036 147.669 37.7829C146.589 38.5298 146.048 39.6184 146.048 41.0487C146.048 42.4472 146.549 43.504 147.55 44.2191C148.567 44.9342 149.854 45.2918 151.412 45.2918Z" fill="#1C1D1F"/>
<path d="M177.002 51.6088V14.994H186.847V21.3825H187.228C187.895 19.11 189.016 17.3936 190.589 16.2335C192.162 15.0575 193.974 14.4695 196.024 14.4695C197.152 14.4695 198.217 14.5887 199.218 14.8271V23.8378C198.742 23.6789 198.082 23.5517 197.24 23.4564C196.398 23.3451 195.627 23.2895 194.928 23.2895C192.687 23.2895 190.827 23.9967 189.35 25.4111C187.887 26.8096 187.156 28.6371 187.156 30.8938V51.6088H177.002Z" fill="#1C1D1F"/>
</svg>
